<svg width="18" height="16" viewBox="0 0 18 16" fill="none" xmlns="http://www.w3.org/2000/svg">
<g clip-path="url(#clip0_6685_7494)">
<g clip-path="url(#clip1_6685_7494)">
<path d="M18.3731 8.6936C18.3731 8.44946 18.2754 8.22485 18.0801 8.03931L11.6055 1.58423C11.3906 1.36938 11.1856 1.29126 10.9512 1.29126C10.4727 1.29126 10.1016 1.64282 10.1016 2.1311C10.1016 2.36548 10.1797 2.59009 10.336 2.74634L12.5235 4.9729L16.4004 8.50806L16.5957 8.01978L13.4512 7.82446H1.09766C0.589843 7.82446 0.238281 8.18579 0.238281 8.6936C0.238281 9.20142 0.589843 9.56274 1.09766 9.56274H13.4512L16.5957 9.36743L16.4004 8.88892L12.5235 12.4143L10.336 14.6409C10.1797 14.7874 10.1016 15.0218 10.1016 15.2561C10.1016 15.7444 10.4727 16.096 10.9512 16.096C11.1856 16.096 11.3906 16.0081 11.586 15.8225L18.0801 9.3479C18.2754 9.16235 18.3731 8.93774 18.3731 8.6936Z" fill="#EBFFFC"/>
</g>
</g>
<defs>
<clipPath id="clip0_6685_7494">
<rect width="17.7612" height="15.4174" fill="white" transform="translate(0.238281 0.29126)"/>
</clipPath>
<clipPath id="clip1_6685_7494">
<rect width="18.4961" height="14.8145" fill="white" transform="translate(0.238281 1.29126)"/>
</clipPath>
</defs>
</svg>
