<svg width="36" height="36" viewBox="0 0 36 36" fill="none" xmlns="http://www.w3.org/2000/svg">
<path fill-rule="evenodd" clip-rule="evenodd" d="M17.205 3.70499C17.416 3.49431 17.7019 3.37598 18 3.37598C18.2981 3.37598 18.5841 3.49431 18.795 3.70499L24.42 9.32999C24.6187 9.54325 24.7269 9.82532 24.7218 10.1168C24.7166 10.4082 24.5986 10.6863 24.3924 10.8924C24.1863 11.0985 23.9082 11.2166 23.6168 11.2217C23.3253 11.2269 23.0433 11.1187 22.83 10.92L19.125 7.21499V31.5C19.125 31.7984 19.0065 32.0845 18.7955 32.2955C18.5845 32.5065 18.2984 32.625 18 32.625C17.7016 32.625 17.4155 32.5065 17.2045 32.2955C16.9935 32.0845 16.875 31.7984 16.875 31.5V7.21499L13.17 10.92C12.9568 11.1187 12.6747 11.2269 12.3832 11.2217C12.0918 11.2166 11.8137 11.0985 11.6076 10.8924C11.4015 10.6863 11.2834 10.4082 11.2783 10.1168C11.2731 9.82532 11.3813 9.54325 11.58 9.32999L17.205 3.70499Z" fill="#0E161F"/>
</svg>
