<svg width="48" height="42" viewBox="0 0 48 42" fill="none" xmlns="http://www.w3.org/2000/svg">
<g clip-path="url(#clip0_6685_7758)">
<g clip-path="url(#clip1_6685_7758)">
<path d="M33.8295 42.3492C37.0195 42.3492 39.128 41.4875 40.9796 39.4158C41.1263 39.2508 41.2547 39.1042 41.4013 38.9391C42.5013 37.7292 43.0147 36.5374 43.0147 35.4007C43.0147 34.0807 42.263 32.7973 40.6312 31.679L36.0296 28.5256C34.6178 27.5722 33.4261 27.5172 31.666 28.3605L28.8244 29.7539C28.2744 30.0106 27.7977 30.0106 27.266 29.6807C26.4593 29.1672 24.4243 27.5356 23.0493 26.1238C21.6559 24.7305 20.2992 23.0622 19.6942 22.0172C19.4559 21.5955 19.4925 21.2472 19.8042 20.7521L21.4542 18.1671C22.1693 17.0304 22.3893 15.472 21.4726 14.152L17.8425 8.94525C16.7058 7.31355 15.4775 6.56187 14.1574 6.54354C13.0208 6.5252 11.8291 7.05688 10.6007 8.1569C10.4541 8.28523 10.289 8.4319 10.1424 8.57858C8.07067 10.4119 7.20898 12.5203 7.20898 15.692C7.20898 20.9355 10.4541 27.3522 16.3392 33.219C22.1876 39.0675 28.586 42.3492 33.8295 42.3492ZM33.8479 39.5624C29.1727 39.6542 23.1959 36.0607 18.4475 31.3307C13.6624 26.5639 9.90404 20.3671 9.99571 15.6737C10.0324 13.657 10.729 11.9336 12.1774 10.6686C12.2874 10.5769 12.3974 10.4853 12.5074 10.3936C13.0574 9.91693 13.6624 9.66026 14.1758 9.66026C14.7258 9.66026 15.1841 9.86193 15.5508 10.4119L18.8509 15.362C19.1625 15.8204 19.1442 16.2237 18.7775 16.8654L16.9442 19.7988C16.1375 21.1005 16.2841 22.0905 17.0908 23.1905C18.1542 24.6022 19.7492 26.6373 21.1609 28.0307C22.5543 29.4239 24.8826 31.4039 26.1477 32.284C27.2476 33.0908 28.2378 33.274 29.9428 32.4491L33.0228 30.9823C33.7195 30.6706 34.2696 30.7623 34.8562 31.1289L39.1462 34.0075C39.6963 34.3557 39.8979 34.8324 39.8979 35.3825C39.8979 35.8957 39.6413 36.5008 39.1646 37.0507C39.073 37.1607 38.9812 37.2707 38.8896 37.3807C37.6246 38.8291 35.8828 39.5258 33.8479 39.5624Z" fill="white"/>
</g>
</g>
<defs>
<clipPath id="clip0_6685_7758">
<rect width="48" height="41.666" fill="white" transform="translate(0 0.332016)"/>
</clipPath>
<clipPath id="clip1_6685_7758">
<rect width="36.484" height="35.8067" fill="white" transform="translate(7.20898 6.54308)"/>
</clipPath>
</defs>
</svg>
