<svg width="48" height="42" viewBox="0 0 48 42" fill="none" xmlns="http://www.w3.org/2000/svg">
<g clip-path="url(#clip0_6685_10280)">
<path d="M12.0322 37.9214C14.1407 37.9214 18.4513 35.7974 21.6218 33.5326C32.5076 33.8295 40.6759 27.5821 40.6759 19.3982C40.6759 11.5423 32.8045 5.2013 22.9649 5.2013C13.1255 5.2013 5.25391 11.5423 5.25391 19.3982C5.25391 24.521 8.53373 29.0659 13.4691 31.3462C12.7663 32.705 11.4543 34.5479 10.7515 35.4694C9.92374 36.5627 10.4235 37.9214 12.0322 37.9214ZM13.6721 35.3288C13.5472 35.3757 13.5003 35.282 13.5784 35.1726C14.453 34.0949 15.7025 32.4707 16.2335 31.4711C16.6708 30.659 16.5615 29.9406 15.5619 29.472C10.6578 27.1917 7.84652 23.5527 7.84652 19.3982C7.84652 12.9948 14.5467 7.7783 22.9649 7.7783C31.3988 7.7783 38.099 12.9948 38.099 19.3982C38.099 25.7861 31.3988 31.0025 22.9649 31.0025C22.6526 31.0025 22.1685 30.9869 21.5436 30.9714C20.8877 30.9714 20.3879 31.1743 19.7945 31.6429C17.8734 33.0329 15.0934 34.751 13.6721 35.3288Z" fill="white"/>
<path d="M30.2588 21.804C31.5081 21.804 32.5234 20.7888 32.5234 19.5393C32.5234 18.2899 31.5081 17.2747 30.2588 17.2747C29.0092 17.2747 27.9941 18.2899 27.9941 19.5393C27.9941 20.7888 29.0092 21.804 30.2588 21.804Z" fill="white"/>
<path d="M22.9658 21.804C24.2153 21.804 25.2304 20.7888 25.2304 19.5393C25.2304 18.2899 24.2153 17.2747 22.9658 17.2747C21.7164 17.2747 20.7012 18.2899 20.7012 19.5393C20.7012 20.7888 21.7164 21.804 22.9658 21.804Z" fill="white"/>
<path d="M15.6865 21.804C16.9204 21.804 17.9355 20.7888 17.9355 19.5393C17.9355 18.2899 16.9047 17.2747 15.6865 17.2747C14.4371 17.2747 13.4219 18.2899 13.4219 19.5393C13.4219 20.7888 14.4371 21.804 15.6865 21.804Z" fill="white"/>
</g>
<defs>
<clipPath id="clip0_6685_10280">
<rect width="36" height="32.7201" fill="white" transform="translate(5.25391 5.2013)"/>
</clipPath>
</defs>
</svg>
