<svg width="18" height="18" viewBox="0 0 18 18" fill="none" xmlns="http://www.w3.org/2000/svg">
<path d="M17.9785 3.02734V14.9609C17.9785 16.9727 16.9629 17.9785 14.9121 17.9785H3.06641C1.02539 17.9785 0 16.9727 0 14.9609V3.02734C0 1.01562 1.02539 0 3.06641 0H14.9121C16.9629 0 17.9785 1.01562 17.9785 3.02734ZM12.0312 5.10742L7.86133 11.8066L5.87891 9.24805C5.63477 8.92578 5.41992 8.83789 5.14648 8.83789C4.69727 8.83789 4.35547 9.19922 4.35547 9.63867C4.35547 9.86328 4.44336 10.0781 4.58984 10.2734L7.04102 13.2812C7.29492 13.623 7.56836 13.7598 7.90039 13.7598C8.23242 13.7598 8.51562 13.6035 8.7207 13.2812L13.3105 6.05469C13.4375 5.84961 13.5547 5.625 13.5547 5.41016C13.5547 4.95117 13.1543 4.6582 12.7344 4.6582C12.4707 4.6582 12.2168 4.81445 12.0312 5.10742Z" fill="#131E29"/>
</svg>
