<svg width="32" height="32" viewBox="0 0 32 32" fill="none" xmlns="http://www.w3.org/2000/svg">
<rect width="32" height="32" rx="16" fill="white"/>
<g clip-path="url(#clip0_5240_10123)">
<path d="M21.6895 16.4766C21.6895 16.2324 21.5918 16.0078 21.4062 15.832L13.6719 8.25391C13.4961 8.08789 13.2813 8 13.0273 8C12.5293 8 12.1387 8.38086 12.1387 8.88867C12.1387 9.13281 12.2363 9.35742 12.3926 9.52344L19.502 16.4766L12.3926 23.4297C12.2363 23.5957 12.1387 23.8105 12.1387 24.0645C12.1387 24.5723 12.5293 24.9531 13.0273 24.9531C13.2813 24.9531 13.4961 24.8652 13.6719 24.6895L21.4062 17.1211C21.5918 16.9355 21.6895 16.7207 21.6895 16.4766Z" fill="#131E29"/>
</g>
<defs>
<clipPath id="clip0_5240_10123">
<rect width="11.6895" height="16.9629" fill="white" transform="translate(10 8)"/>
</clipPath>
</defs>
</svg>
