<svg width="10" height="18" viewBox="0 0 10 18" fill="none" xmlns="http://www.w3.org/2000/svg">
<path d="M9.6895 8.97656C9.6895 8.73242 9.5918 8.50781 9.4062 8.33203L1.67188 0.753906C1.49609 0.587891 1.28125 0.5 1.02734 0.5C0.529302 0.5 0.138672 0.880859 0.138672 1.38867C0.138672 1.63281 0.236332 1.85742 0.392582 2.02344L7.50195 8.97656L0.392582 15.9297C0.236332 16.0957 0.138672 16.3105 0.138672 16.5645C0.138672 17.0723 0.529302 17.4531 1.02734 17.4531C1.28125 17.4531 1.49609 17.3652 1.67188 17.1895L9.4062 9.62109C9.5918 9.43555 9.6895 9.2207 9.6895 8.97656Z" fill="#131E29"/>
</svg>
