<svg width="24" height="22" viewBox="0 0 24 22" fill="none" xmlns="http://www.w3.org/2000/svg">
<g clip-path="url(#clip0_5215_8567)">
<path d="M17.6895 10.9766C17.6895 10.7324 17.5918 10.5078 17.4062 10.332L9.67188 2.75391C9.49609 2.58789 9.28125 2.5 9.02734 2.5C8.5293 2.5 8.13867 2.88086 8.13867 3.38867C8.13867 3.63281 8.23633 3.85742 8.39258 4.02344L15.502 10.9766L8.39258 17.9297C8.23633 18.0957 8.13867 18.3105 8.13867 18.5645C8.13867 19.0723 8.5293 19.4531 9.02734 19.4531C9.28125 19.4531 9.49609 19.3652 9.67188 19.1895L17.4062 11.6211C17.5918 11.4355 17.6895 11.2207 17.6895 10.9766Z" fill="#131E29"/>
</g>
<defs>
<clipPath id="clip0_5215_8567">
<rect width="11.6895" height="16.9629" fill="white" transform="translate(6 2.5)"/>
</clipPath>
</defs>
</svg>
