<svg width="21" height="25" viewBox="0 0 21 25" fill="none" xmlns="http://www.w3.org/2000/svg">
<g clip-path="url(#clip0_6673_9805)">
<path d="M10.5234 18.4795C10.7676 18.4795 10.9922 18.3818 11.168 18.1962L18.7461 10.4619C18.9121 10.2861 19 10.0713 19 9.81738C19 9.31934 18.6191 8.92871 18.1113 8.92871C17.8672 8.92871 17.6426 9.02637 17.4766 9.18262L10.5234 16.292L3.5703 9.18262C3.4043 9.02637 3.1895 8.92871 2.9355 8.92871C2.4277 8.92871 2.0469 9.31934 2.0469 9.81738C2.0469 10.0713 2.1348 10.2861 2.3105 10.4619L9.87891 18.1962C10.0644 18.3818 10.2793 18.4795 10.5234 18.4795Z" fill="black" fill-opacity="0.85"/>
</g>
<defs>
<clipPath id="clip0_6673_9805">
<rect width="11.6895" height="16.9629" fill="white" transform="translate(19 6.79004) rotate(90)"/>
</clipPath>
</defs>
</svg>
