<svg width="32" height="33" viewBox="0 0 32 33" fill="none" xmlns="http://www.w3.org/2000/svg">
<rect y="0.5" width="32" height="32" rx="16" fill="#F3F3F4" fill-opacity="0.5"/>
<g clip-path="url(#clip0_6724_4621)">
<path d="M21.6895 16.9766C21.6895 16.7324 21.5918 16.5078 21.4062 16.332L13.6719 8.75391C13.4961 8.58789 13.2813 8.5 13.0273 8.5C12.5293 8.5 12.1387 8.88086 12.1387 9.38867C12.1387 9.63281 12.2363 9.85742 12.3926 10.0234L19.502 16.9766L12.3926 23.9297C12.2363 24.0957 12.1387 24.3105 12.1387 24.5645C12.1387 25.0723 12.5293 25.4531 13.0273 25.4531C13.2813 25.4531 13.4961 25.3652 13.6719 25.1895L21.4062 17.6211C21.5918 17.4355 21.6895 17.2207 21.6895 16.9766Z" fill="#131E29"/>
</g>
<defs>
<clipPath id="clip0_6724_4621">
<rect width="11.6895" height="16.9629" fill="white" transform="translate(10 8.5)"/>
</clipPath>
</defs>
</svg>
