<svg width="24" height="21" viewBox="0 0 24 21" fill="none" xmlns="http://www.w3.org/2000/svg">
<g clip-path="url(#clip0_5222_9685)">
<path d="M4.57106 18.2429C4.91286 18.575 5.47926 18.575 5.81129 18.2429L12.0613 11.9929L18.3113 18.2429C18.6434 18.575 19.2195 18.5847 19.5516 18.2429C19.8836 17.9011 19.8836 17.3445 19.5516 17.0125L13.3015 10.7527L19.5516 4.5027C19.8836 4.17067 19.8934 3.60426 19.5516 3.27223C19.2098 2.93043 18.6434 2.93043 18.3113 3.27223L12.0613 9.52223L5.81129 3.27223C5.47926 2.93043 4.90309 2.92067 4.57106 3.27223C4.23903 3.61403 4.23903 4.17067 4.57106 4.5027L10.8211 10.7527L4.57106 17.0125C4.23903 17.3445 4.22926 17.9109 4.57106 18.2429Z" fill="#131E29"/>
</g>
<defs>
<clipPath id="clip0_5222_9685">
<rect width="15.8472" height="15.4956" fill="white" transform="translate(4.31836 3)"/>
</clipPath>
</defs>
</svg>
