<svg width="24" height="22" viewBox="0 0 24 22" fill="none" xmlns="http://www.w3.org/2000/svg">
<g clip-path="url(#clip0_6673_9885)">
<g clip-path="url(#clip1_6673_9885)">
<path d="M6.2461 20.7217H16.9407C18.8894 20.7217 19.8685 19.7519 19.8685 17.8312V8.62844C19.8685 6.70769 18.8894 5.738 16.9407 5.738H6.2461C4.29738 5.738 3.31836 6.69837 3.31836 8.62844V17.8312C3.31836 19.7613 4.29738 20.7217 6.2461 20.7217ZM11.5981 0.777634C11.999 0.777634 12.3347 1.10397 12.3347 1.49558V10.9781L12.2787 12.3767L12.8009 11.8266L14.2461 10.2881C14.3766 10.1389 14.5631 10.0643 14.7496 10.0643C15.1318 10.0643 15.4302 10.3348 15.4302 10.7171C15.4302 10.9221 15.3464 11.0713 15.2065 11.2112L12.1295 14.1762C11.9431 14.3627 11.7845 14.4186 11.5981 14.4186C11.4023 14.4186 11.2438 14.3627 11.0573 14.1762L7.98035 11.2112C7.8405 11.0713 7.75658 10.9221 7.75658 10.7171C7.75658 10.3348 8.0363 10.0643 8.42791 10.0643C8.61439 10.0643 8.81019 10.1389 8.94073 10.2881L10.3859 11.8266L10.9081 12.3767L10.8521 10.9781V1.49558C10.8521 1.10397 11.1971 0.777634 11.5981 0.777634Z" fill="white"/>
</g>
</g>
<defs>
<clipPath id="clip0_6673_9885">
<rect width="23.6816" height="20.5566" fill="white" transform="translate(0.318359 0.721695)"/>
</clipPath>
<clipPath id="clip1_6673_9885">
<rect width="16.8951" height="20" fill="white" transform="translate(3.31836 0.721695)"/>
</clipPath>
</defs>
</svg>
