<svg width="24" height="28" viewBox="0 0 24 28" fill="none" xmlns="http://www.w3.org/2000/svg">
<g clip-path="url(#clip0_6724_9306)">
<g clip-path="url(#clip1_6724_9306)">
<path d="M20.5449 21.2793C20.5449 23.7988 16.707 25.5566 11.2871 25.5566C5.85742 25.5566 2 23.7988 2 21.2793C2 19.1828 4.69157 17.6111 8.74805 17.1546V17.9199C8.74805 18.2026 8.75547 18.4727 8.77277 18.7258C5.94799 19.0951 3.99219 20.0852 3.99219 21.2793C3.99219 22.8223 7.17578 24.0137 11.2773 24.0137C15.3594 24.0137 18.5625 22.8027 18.5625 21.2793C18.5625 20.0913 16.5894 19.0958 13.7629 18.7253C13.7799 18.4724 13.7871 18.2025 13.7871 17.9199V17.151C17.8522 17.6024 20.5449 19.1771 20.5449 21.2793Z" fill="#0E161F"/>
<path d="M14.9395 7.79297C14.9395 9.51172 13.7676 10.957 12.1758 11.3477V17.5293C12.1758 20.4199 11.668 21.9824 11.2773 21.9824C10.8769 21.9824 10.3691 20.4102 10.3691 17.5293V11.3477C8.77734 10.9473 7.60547 9.51172 7.60547 7.79297C7.60547 5.77148 9.23633 4.11133 11.2773 4.11133C13.3086 4.11133 14.9395 5.77148 14.9395 7.79297ZM8.97266 6.72852C8.97266 7.41211 9.55859 7.99805 10.2227 7.99805C10.916 7.99805 11.4824 7.41211 11.4824 6.72852C11.4824 6.05469 10.916 5.47852 10.2227 5.47852C9.55859 5.47852 8.97266 6.05469 8.97266 6.72852Z" fill="#0E161F"/>
</g>
</g>
<defs>
<clipPath id="clip0_6724_9306">
<rect width="24" height="27" fill="white" transform="translate(0 0.5)"/>
</clipPath>
<clipPath id="clip1_6724_9306">
<rect width="18.9062" height="24.6777" fill="white" transform="translate(2 2.5)"/>
</clipPath>
</defs>
</svg>
