<svg width="104" height="102" viewBox="0 0 104 102" fill="none" xmlns="http://www.w3.org/2000/svg">
<g clip-path="url(#clip0_5416_12800)">
<path d="M101.665 50.9753C101.665 78.8452 79.0023 101.558 51.0826 101.558C23.2126 101.558 0.5 78.8452 0.5 50.9753C0.5 23.0557 23.2126 0.392731 51.0826 0.392731C79.0023 0.392731 101.665 23.0557 101.665 50.9753ZM66.5051 31.2878L45.33 65.307L35.2631 52.3142C34.0233 50.6777 32.9324 50.2314 31.4942 50.2314C29.2626 50.2314 27.527 52.0664 27.527 54.2977C27.527 55.4383 27.9733 56.5295 28.7171 57.5213L41.1644 72.7952C42.4538 74.5309 43.8423 75.2251 45.5284 75.2251C47.2145 75.2251 48.6526 74.4318 49.694 72.7952L73.0015 36.0981C73.5966 35.0567 74.2415 33.9161 74.2415 32.8251C74.2415 30.4943 72.2083 29.0066 70.0262 29.0066C68.7369 29.0066 67.4476 29.8001 66.5051 31.2878Z" fill="#008F81"/>
</g>
<defs>
<clipPath id="clip0_5416_12800">
<rect width="103" height="101.215" fill="white" transform="translate(0.5 0.392731)"/>
</clipPath>
</defs>
</svg>
