<svg width="18" height="16" viewBox="0 0 18 16" fill="none" xmlns="http://www.w3.org/2000/svg">
<path d="M7.33657 13.8036V10.1666C7.33657 9.88197 7.52832 9.69645 7.81286 9.69645H10.2067C10.4974 9.69645 10.6768 9.88197 10.6768 10.1666V13.8036H7.33657ZM3.551 13.4387C3.551 14.2985 4.07058 14.7995 4.94275 14.7995H13.0768C13.949 14.7995 14.4623 14.2985 14.4623 13.4387V8.52738L9.37781 4.26549C9.14276 4.06755 8.86438 4.07374 8.63553 4.26549L3.551 8.52738V13.4387ZM2.15305 8.39746C2.32625 8.39746 2.46852 8.30467 2.59842 8.19953L8.7902 2.99745C8.85823 2.94178 8.93861 2.91085 9.0067 2.91085C9.08087 2.91085 9.15511 2.94178 9.2232 2.99745L15.4211 8.19953C15.5448 8.30467 15.6871 8.39746 15.8603 8.39746C16.1943 8.39746 16.3922 8.1562 16.3922 7.90261C16.3922 7.76034 16.3366 7.61189 16.1943 7.50055L9.74892 2.08817C9.51387 1.89023 9.26025 1.79126 9.0067 1.79126C8.75309 1.79126 8.49947 1.89023 8.26442 2.08817L1.81903 7.50055C1.68295 7.61189 1.62109 7.76034 1.62109 7.90261C1.62109 8.1562 1.81903 8.39746 2.15305 8.39746ZM13.0335 5.11291L14.5861 6.42425V3.63456C14.5861 3.3624 14.4129 3.1892 14.1407 3.1892H13.4788C13.2129 3.1892 13.0335 3.3624 13.0335 3.63456V5.11291Z" fill="#EBFFFC"/>
</svg>
