<svg width="60" height="43" viewBox="0 0 60 43" fill="none" xmlns="http://www.w3.org/2000/svg">
<g clip-path="url(#clip0_6766_13821)">
<path d="M33.57 33.93H27.71V12.77H33.57V33.92V33.93Z" fill="#00B09A"/>
<path d="M15.4196 0H9.55957V10.52L15.4196 5.57V0Z" fill="#00B09A"/>
<path d="M9.55957 22.75V25.4C9.55957 25.49 9.55957 25.58 9.57957 25.66C9.61957 28.38 10.2996 30.45 11.6296 31.88C12.9996 33.36 15.0296 34.09 17.7296 34.09C20.4296 34.09 21.6196 33.43 23.8196 31.91V26.31C22.2596 27.25 19.8596 28.64 18.6996 28.64C17.7296 28.64 16.9396 28.34 16.3396 27.74C15.7396 27.14 15.4396 26.21 15.4396 24.93H15.4296C15.4296 24.03 15.4296 22.67 15.4296 21.61C14.0496 22.41 12.4696 22.84 10.8496 22.84C10.4196 22.84 9.98957 22.81 9.55957 22.75Z" fill="#00B09A"/>
<path d="M15.4203 9.81001L9.56031 14.76L6.32031 17.49C7.19031 18.52 8.33031 19.18 9.56031 19.46C9.98031 19.55 10.4103 19.6 10.8503 19.6C12.1903 19.6 13.5303 19.15 14.6403 18.22L15.4303 17.55L23.7903 10.44L23.8203 2.73001L15.4303 9.82001L15.4203 9.81001Z" fill="#00B09A"/>
<path d="M5.9 13.61V9.98001H0V13.71C0 16.07 1.39 18.1 3.39 19.05C4.15 19.41 5 19.61 5.9 19.61V15.74V13.62V13.61Z" fill="#00B09A"/>
<path d="M28.3199 4.07C28.9499 3.44 29.7199 3.12 30.6299 3.12C31.5399 3.12 32.3199 3.44 32.9499 4.08C33.5799 4.72 33.8999 5.49999 33.8999 6.41C33.8999 7.31999 33.5799 8.1 32.9499 8.72C32.3199 9.35 31.5399 9.66 30.6299 9.66C29.7199 9.66 28.9399 9.35 28.3199 8.72C27.6899 8.09 27.3799 7.31999 27.3799 6.41C27.3799 5.49999 27.6899 4.7 28.3199 4.07Z" fill="#00B09A"/>
<path d="M54.1602 12.8V14.58C52.6102 12.61 50.4802 11.63 47.7902 11.63C44.8502 11.63 42.3902 12.71 40.4302 14.87C38.4702 17.03 37.4902 19.72 37.4902 22.94C37.4902 26.16 38.4702 28.85 40.4302 31.01C42.3902 33.17 44.8502 34.25 47.7902 34.25C50.4102 34.25 52.5002 33.32 54.0502 31.46V42.82H60.0002V12.8H54.1602ZM52.9202 27.12C51.7702 28.25 50.3702 28.82 48.7202 28.82C47.0702 28.82 45.6702 28.25 44.5402 27.12C43.4102 25.99 42.8402 24.59 42.8402 22.94C42.8402 21.29 43.4102 19.85 44.5402 18.71C45.6702 17.56 47.0702 16.99 48.7202 16.99C50.3702 16.99 51.7702 17.57 52.9202 18.73C54.0702 19.89 54.6402 21.29 54.6402 22.95C54.6402 24.61 54.0702 26 52.9202 27.13V27.12Z" fill="#00B09A"/>
</g>
<defs>
<clipPath id="clip0_6766_13821">
<rect width="60" height="42.81" fill="white"/>
</clipPath>
</defs>
</svg>
