<svg width="116" height="83" viewBox="0 0 116 83" fill="none" xmlns="http://www.w3.org/2000/svg">
<path d="M75.0999 34.6254L46.5462 58.8084L30.7773 72.1691C35.0036 77.2155 40.578 80.4531 46.5462 81.7754C48.6063 82.2314 50.7119 82.4746 52.8174 82.4746C59.331 82.4746 65.89 80.2554 71.2675 75.7259L75.0999 72.4579L115.848 37.6957L115.999 0L75.115 34.6406L75.0999 34.6254Z" fill="#00DEBE"/>
<path d="M28.7354 63.5357V53.1693V35.4159H0V53.6253C0 65.1621 6.75593 75.1028 16.496 79.7084C20.2072 81.4716 24.3577 82.4443 28.7354 82.4443V81.3196V63.5205V63.5357ZM24.7364 77.2612C25.3575 78.006 25.9937 78.7052 26.6602 79.3892C25.9937 78.7052 25.3423 78.006 24.7364 77.2612Z" fill="#00DEBE"/>
</svg>
