<svg width="24" height="22" viewBox="0 0 24 22" fill="none" xmlns="http://www.w3.org/2000/svg">
<g clip-path="url(#clip0_6673_9900)">
<g clip-path="url(#clip1_6673_9900)">
<path d="M11.9158 20.0008C14.6288 20.0008 16.844 15.9899 16.844 10.6129C16.844 5.20652 14.6385 1.19568 11.9158 1.19568C9.19314 1.19568 6.98767 5.20652 6.98767 10.6129C6.98767 15.9899 9.2029 20.0008 11.9158 20.0008ZM11.9158 2.37649C13.8285 2.37649 15.5363 6.1824 15.5363 10.6129C15.5363 14.9652 13.8285 18.8102 11.9158 18.8102C10.0031 18.8102 8.29534 14.9652 8.29534 10.6129C8.29534 6.1824 10.0031 2.37649 11.9158 2.37649ZM11.2815 1.3323V19.8154H12.5599V1.3323H11.2815ZM11.9158 14.2626C8.91013 14.2626 6.246 15.0531 4.87978 16.312L5.86541 17.1219C7.15356 16.0973 9.25169 15.541 11.9158 15.541C14.58 15.541 16.6781 16.0973 17.9662 17.1219L18.9519 16.312C17.5857 15.0531 14.9216 14.2626 11.9158 14.2626ZM20.9231 9.94928H2.90851V11.2277H20.9231V9.94928ZM11.9158 6.97286C14.9216 6.97286 17.5857 6.1824 18.9519 4.92352L17.9662 4.11354C16.6781 5.12846 14.58 5.69446 11.9158 5.69446C9.25169 5.69446 7.15356 5.12846 5.86541 4.11354L4.87978 4.92352C6.246 6.1824 8.91013 6.97286 11.9158 6.97286ZM11.9158 20.5473C17.41 20.5473 21.8698 16.0875 21.8698 10.5934C21.8698 5.09918 17.41 0.639435 11.9158 0.639435C6.42166 0.639435 1.96191 5.09918 1.96191 10.5934C1.96191 16.0875 6.42166 20.5473 11.9158 20.5473ZM11.9158 19.2201C7.15356 19.2201 3.2891 15.3557 3.2891 10.5934C3.2891 5.83108 7.15356 1.96662 11.9158 1.96662C16.6781 1.96662 20.5426 5.83108 20.5426 10.5934C20.5426 15.3557 16.6781 19.2201 11.9158 19.2201Z" fill="white"/>
</g>
</g>
<defs>
<clipPath id="clip0_6673_9900">
<rect width="24" height="20.833" fill="white" transform="translate(0 0.583511)"/>
</clipPath>
<clipPath id="clip1_6673_9900">
<rect width="20.2689" height="19.9175" fill="white" transform="translate(1.96191 0.639435)"/>
</clipPath>
</defs>
</svg>
