<svg width="33" height="33" viewBox="0 0 33 33" fill="none" xmlns="http://www.w3.org/2000/svg">
<path d="M13.0202 14.5137H10.2402V23.3774H13.0202V14.5137Z" fill="white"/>
<path d="M20.5351 14.3165C20.4301 14.305 20.3225 14.2967 20.213 14.2922C18.6568 14.2288 17.7769 15.1522 17.4733 15.5461C17.3926 15.6517 17.3523 15.7196 17.3523 15.7196V14.5336H14.6934V23.3974H17.4733V19.2329C17.4733 18.6315 17.4266 17.9886 17.7276 17.4423C17.9825 16.9806 18.4429 16.7494 18.9642 16.7494C20.4992 16.7494 20.5357 18.1384 20.5357 18.2703V23.4377H23.3157V17.6562C23.3157 15.678 22.3103 14.508 20.5357 14.3165H20.5351Z" fill="white"/>
<path d="M13.1944 12.122C13.3988 11.2555 12.8623 10.3874 11.9958 10.1829C11.1294 9.97841 10.2613 10.515 10.0568 11.3814C9.8523 12.2478 10.3889 13.116 11.2553 13.3205C12.1217 13.525 12.9899 12.9884 13.1944 12.122Z" fill="white"/>
<circle cx="16.7052" cy="16.8312" r="15.5411" stroke="white"/>
</svg>
