<svg width="60" height="44" viewBox="0 0 60 44" fill="none" xmlns="http://www.w3.org/2000/svg">
<g clip-path="url(#clip0_6673_9860)">
<path d="M33.5744 34.5643H27.7119V13.3429H33.5744V34.5674V34.5643Z" fill="white"/>
<path d="M15.4221 0.52269H9.55957V11.0772L15.4221 6.11202V0.52269Z" fill="white"/>
<path d="M9.55957 23.3481V26.0071C9.55957 26.0976 9.56579 26.1818 9.57823 26.263C9.61866 28.9905 10.2998 31.0721 11.6309 32.5077C13.0024 33.9869 15.0333 34.7265 17.7298 34.7265C20.4263 34.7265 21.6205 34.0681 23.8194 32.5357V26.9183C22.2612 27.8639 19.8633 29.2527 18.6939 29.2527C17.7205 29.2527 16.9336 28.9531 16.3365 28.3508C15.7362 27.7516 15.4377 26.8122 15.4377 25.5327H15.4252C15.4252 24.6245 15.4252 23.2701 15.4252 22.2059C14.0412 23.008 12.4613 23.4418 10.8503 23.4418C10.4148 23.4418 9.98876 23.4074 9.56268 23.3481H9.55957Z" fill="white"/>
<path d="M15.4214 10.3656L9.5589 15.3308L6.32129 18.074C7.18901 19.1101 8.33352 19.7748 9.5589 20.0463C9.98187 20.1399 10.4142 20.1899 10.8465 20.1899C12.1838 20.1899 13.5305 19.7342 14.6346 18.8042L15.4214 18.1333L23.7876 10.996L23.8187 3.25645L15.4245 10.3687L15.4214 10.3656Z" fill="#00DEBE"/>
<path d="M5.90181 16.3014V14.173V10.5279H0.00195312V14.2666C0.00195312 16.6353 1.38906 18.6763 3.38885 19.6219C4.15082 19.9839 5.00299 20.1836 5.90181 20.1836V19.9527V16.2982V16.3014ZM5.08074 19.1194C5.20826 19.2723 5.33888 19.4159 5.47573 19.5563C5.33888 19.4159 5.20515 19.2723 5.08074 19.1194Z" fill="#00DEBE"/>
<path d="M28.3183 4.61094C28.9466 3.9743 29.7179 3.65598 30.6322 3.65598C31.5466 3.65598 32.321 3.97742 32.9555 4.6203C33.59 5.26318 33.9072 6.04338 33.9072 6.96089C33.9072 7.8784 33.59 8.65236 32.9555 9.28276C32.321 9.91316 31.5466 10.2284 30.6322 10.2284C29.7179 10.2284 28.9466 9.91316 28.3183 9.28276C27.6901 8.65236 27.376 7.8784 27.376 6.96089C27.376 6.04338 27.6901 5.24446 28.3183 4.60782V4.61094Z" fill="white"/>
<path d="M54.1628 13.3617V15.1499C52.6109 13.1775 50.4867 12.1914 47.7903 12.1914C44.845 12.1914 42.3911 13.2743 40.4287 15.4401C38.4662 17.6059 37.4834 20.3023 37.4834 23.5354C37.4834 26.7686 38.4662 29.4649 40.4287 31.6308C42.3911 33.7966 44.845 34.8795 47.7903 34.8795C50.4121 34.8795 52.499 33.9464 54.054 32.077V43.4804H60.0005V13.3617H54.1628ZM52.925 27.7391C51.7774 28.8782 50.3779 29.4462 48.7264 29.4462C47.0749 29.4462 45.6785 28.8782 44.5433 27.7391C43.4081 26.6001 42.8421 25.2019 42.8421 23.5417C42.8421 21.8814 43.4081 20.4427 44.5433 19.2912C45.6785 18.1427 47.0718 17.5654 48.7264 17.5654C50.381 17.5654 51.7805 18.1458 52.925 19.3068C54.0695 20.4677 54.6449 21.8783 54.6449 23.5386C54.6449 25.1988 54.0727 26.5969 52.925 27.736V27.7391Z" fill="white"/>
</g>
<defs>
<clipPath id="clip0_6673_9860">
<rect width="60" height="42.9545" fill="white" transform="translate(0 0.522736)"/>
</clipPath>
</defs>
</svg>
