<svg width="24" height="25" viewBox="0 0 24 25" fill="none" xmlns="http://www.w3.org/2000/svg">
<g clip-path="url(#clip0_5234_8215)">
<path d="M7.55153 13.2467C7.55153 13.066 7.62382 12.8998 7.76117 12.7697L13.4846 7.16189C13.6146 7.03904 13.7736 6.974 13.9615 6.974C14.3301 6.974 14.6191 7.25583 14.6191 7.63162C14.6191 7.81228 14.5469 7.97849 14.4312 8.10134L9.17031 13.2467L14.4312 18.392C14.5469 18.5148 14.6191 18.6738 14.6191 18.8617C14.6191 19.2375 14.3301 19.5193 13.9615 19.5193C13.7736 19.5193 13.6146 19.4542 13.4846 19.3242L7.76117 13.7236C7.62382 13.5863 7.55153 13.4273 7.55153 13.2467Z" fill="#131E29"/>
</g>
<defs>
<clipPath id="clip0_5234_8215">
<rect width="8.65023" height="12.5525" fill="white" transform="matrix(-1 0 0 1 16.2012 6.974)"/>
</clipPath>
</defs>
</svg>
