<svg width="39" height="47" viewBox="0 0 39 47" fill="none" xmlns="http://www.w3.org/2000/svg">
<g clip-path="url(#clip0_6682_7001)">
<path d="M18.9424 46.9083C20.2119 46.9083 21.1152 46.0293 21.1152 44.7598V12.6064L20.8711 5.33106L19.4795 5.81934L28.244 15.4141L33.8105 20.8828C34.2013 21.2734 34.7628 21.4687 35.3485 21.4687C36.5693 21.4687 37.4483 20.541 37.4483 19.3447C37.4483 18.7588 37.253 18.2461 36.789 17.7578L20.5781 1.52246C20.1142 1.03418 19.5527 0.790039 18.9424 0.790039C18.332 0.790039 17.7705 1.03418 17.3066 1.52246L1.12012 17.7578C0.65625 18.2461 0.436523 18.7588 0.436523 19.3447C0.436523 20.541 1.31543 21.4687 2.53613 21.4687C3.12207 21.4687 3.708 21.2734 4.07422 20.8828L9.64062 15.4141L18.3808 5.81934L17.0137 5.33106L16.7695 12.6064V44.7598C16.7695 46.0293 17.6728 46.9083 18.9424 46.9083Z" fill="white"/>
</g>
<defs>
<clipPath id="clip0_6682_7001">
<rect width="37.915" height="46.1182" fill="white" transform="translate(0.436523 0.790039)"/>
</clipPath>
</defs>
</svg>
