<svg width="48" height="43" viewBox="0 0 48 43" fill="none" xmlns="http://www.w3.org/2000/svg">
<g clip-path="url(#clip0_6685_1140)">
<path d="M24.0797 38.5659C33.8381 38.5659 41.7591 30.6449 41.7591 20.8865C41.7591 11.1282 33.8381 3.20718 24.0797 3.20718C14.3214 3.20718 6.40039 11.1282 6.40039 20.8865C6.40039 30.6449 14.3214 38.5659 24.0797 38.5659ZM24.0797 35.6193C15.9334 35.6193 9.34696 29.0329 9.34696 20.8865C9.34696 12.7402 15.9334 6.15375 24.0797 6.15375C32.2261 6.15375 38.8125 12.7402 38.8125 20.8865C38.8125 29.0329 32.2261 35.6193 24.0797 35.6193Z" fill="white"/>
<path d="M23.7162 24.4748C24.5827 24.4748 25.1202 23.9201 25.1202 23.2443C25.1202 23.1749 25.1202 23.0882 25.1202 23.0362C25.1202 22.0656 25.6748 21.4415 26.8881 20.6443C28.5693 19.535 29.7654 18.5297 29.7654 16.4498C29.7654 13.5725 27.2001 12.0126 24.2535 12.0126C21.2723 12.0126 19.3137 13.4339 18.8457 15.0285C18.759 15.3058 18.707 15.5831 18.707 15.8778C18.707 16.6578 19.3137 17.0737 19.8857 17.0737C20.475 17.0737 20.8563 16.7964 21.1683 16.3804L21.4803 15.9645C22.0869 14.9592 22.9882 14.3698 24.1495 14.3698C25.7268 14.3698 26.7493 15.2712 26.7493 16.5884C26.7493 17.767 26.0215 18.339 24.5135 19.3963C23.2655 20.263 22.3296 21.1817 22.3296 22.8802C22.3296 22.9494 22.3296 23.0362 22.3296 23.1055C22.3296 24.0069 22.8322 24.4748 23.7162 24.4748ZM23.6815 29.64C24.6868 29.64 25.5534 28.8427 25.5534 27.8374C25.5534 26.832 24.7042 26.0347 23.6815 26.0347C22.6589 26.0347 21.8096 26.8494 21.8096 27.8374C21.8096 28.8253 22.6762 29.64 23.6815 29.64Z" fill="white"/>
</g>
<defs>
<clipPath id="clip0_6685_1140">
<rect width="36" height="35.376" fill="white" transform="translate(6.40039 3.20718)"/>
</clipPath>
</defs>
</svg>
