<svg width="24" height="22" viewBox="0 0 24 22" fill="none" xmlns="http://www.w3.org/2000/svg">
<g clip-path="url(#clip0_6673_9893)">
<g clip-path="url(#clip1_6673_9893)">
<path d="M2 8.59957C2 13.0194 5.59617 16.6156 10.0161 16.6156C11.7639 16.6156 13.3611 16.0531 14.677 15.1089L19.6192 20.0611C19.8503 20.2922 20.1517 20.4027 20.4731 20.4027C21.1561 20.4027 21.6283 19.8903 21.6283 19.2173C21.6283 18.8958 21.5077 18.6045 21.2968 18.3937L16.3847 13.4514C17.4193 12.1054 18.0321 10.4278 18.0321 8.59957C18.0321 4.17968 14.4359 0.583511 10.0161 0.583511C5.59617 0.583511 2 4.17968 2 8.59957ZM3.71772 8.59957C3.71772 5.12393 6.54042 2.30124 10.0161 2.30124C13.4917 2.30124 16.3144 5.12393 16.3144 8.59957C16.3144 12.0752 13.4917 14.8979 10.0161 14.8979C6.54042 14.8979 3.71772 12.0752 3.71772 8.59957Z" fill="white"/>
</g>
</g>
<defs>
<clipPath id="clip0_6673_9893">
<rect width="24" height="20.833" fill="white" transform="translate(0 0.583511)"/>
</clipPath>
<clipPath id="clip1_6673_9893">
<rect width="20" height="19.8192" fill="white" transform="translate(2 0.583511)"/>
</clipPath>
</defs>
</svg>
