<svg width="24" height="21" viewBox="0 0 24 21" fill="none" xmlns="http://www.w3.org/2000/svg">
<g clip-path="url(#clip0_5240_10044)">
<g clip-path="url(#clip1_5240_10044)">
<path d="M11.8376 18.88C16.7823 18.88 20.7961 14.8662 20.7961 9.92142C20.7961 4.97666 16.7823 0.962891 11.8376 0.962891C6.8928 0.962891 2.87903 4.97666 2.87903 9.92142C2.87903 14.8662 6.8928 18.88 11.8376 18.88ZM11.8376 17.3868C7.7096 17.3868 4.37212 14.0494 4.37212 9.92142C4.37212 5.79346 7.7096 2.45598 11.8376 2.45598C15.9655 2.45598 19.303 5.79346 19.303 9.92142C19.303 14.0494 15.9655 17.3868 11.8376 17.3868Z" fill="#131E29"/>
<path d="M7.24408 10.8699H11.8287C12.1712 10.8699 12.4436 10.6065 12.4436 10.2551V4.33551C12.4436 3.99298 12.1712 3.72949 11.8287 3.72949C11.4862 3.72949 11.2227 3.99298 11.2227 4.33551V9.64914H7.24408C6.89276 9.64914 6.62927 9.91263 6.62927 10.2551C6.62927 10.6065 6.89276 10.8699 7.24408 10.8699Z" fill="#131E29"/>
</g>
</g>
<defs>
<clipPath id="clip0_5240_10044">
<rect width="24" height="20.833" fill="white" transform="translate(0 0.0839844)"/>
</clipPath>
<clipPath id="clip1_5240_10044">
<rect width="18.242" height="17.9258" fill="white" transform="translate(2.87903 0.962891)"/>
</clipPath>
</defs>
</svg>
