<svg width="18" height="16" viewBox="0 0 18 16" fill="none" xmlns="http://www.w3.org/2000/svg">
<g clip-path="url(#clip0_6724_5456)">
<path d="M8.87976 14.5921C12.5391 14.5921 15.5095 11.6217 15.5095 7.96234C15.5095 4.30297 12.5391 1.33258 8.87976 1.33258C5.22039 1.33258 2.25 4.30297 2.25 7.96234C2.25 11.6217 5.22039 14.5921 8.87976 14.5921ZM8.87976 13.4871C5.82487 13.4871 3.35496 11.0172 3.35496 7.96234C3.35496 4.90745 5.82487 2.43754 8.87976 2.43754C11.9347 2.43754 14.4045 4.90745 14.4045 7.96234C14.4045 11.0172 11.9347 13.4871 8.87976 13.4871Z" fill="white"/>
<path d="M5.48038 8.66442H8.87325C9.12672 8.66442 9.32826 8.46947 9.32826 8.20943V3.82861C9.32826 3.57512 9.12672 3.38013 8.87325 3.38013C8.61976 3.38013 8.42476 3.57512 8.42476 3.82861V7.76096H5.48038C5.22038 7.76096 5.02539 7.95596 5.02539 8.20943C5.02539 8.46947 5.22038 8.66442 5.48038 8.66442Z" fill="white"/>
</g>
<defs>
<clipPath id="clip0_6724_5456">
<rect width="13.5" height="13.266" fill="white" transform="translate(2.25 1.33258)"/>
</clipPath>
</defs>
</svg>
