<svg width="33" height="33" viewBox="0 0 33 33" fill="none" xmlns="http://www.w3.org/2000/svg">
<circle cx="16.7882" cy="16.8312" r="15.5411" stroke="white"/>
<path d="M23.8428 13.9223C23.4621 13.0232 22.9181 12.2158 22.225 11.5227C21.532 10.8297 20.7246 10.2851 19.8255 9.90501C18.894 9.51125 17.9056 9.31152 16.8865 9.31152C15.8674 9.31152 14.8785 9.51125 13.9476 9.90501C13.0485 10.2857 12.2411 10.8297 11.548 11.5227C10.855 12.2158 10.3104 13.0232 9.93031 13.9223C9.53655 14.8537 9.33683 15.8421 9.33683 16.8612C9.33683 17.8803 9.53655 18.8693 9.93031 19.8002C10.0509 20.0853 10.1881 20.3612 10.3411 20.627L9.26855 24.5458L13.2773 23.4942C13.4946 23.6126 13.7183 23.7201 13.9481 23.8175C14.8791 24.2112 15.868 24.4109 16.8871 24.4109C17.9062 24.4109 18.8946 24.2112 19.8261 23.8175C20.7251 23.4368 21.5326 22.8928 22.2256 22.1997C22.9187 21.5067 23.4632 20.6992 23.8433 19.8002C24.2371 18.8693 24.4368 17.8803 24.4368 16.8612C24.4368 15.8421 24.2371 14.8537 23.8433 13.9223H23.8428ZM16.8865 23.1289C16.0108 23.1289 15.1767 22.9486 14.4187 22.6225C14.0887 22.4808 13.7729 22.3113 13.4753 22.1167L11.8997 22.5298L11.0922 22.7414L11.309 21.9494L11.7284 20.417C11.5293 20.1297 11.354 19.8247 11.2049 19.5049C10.8294 18.7014 10.6194 17.8052 10.6194 16.8612C10.6194 13.4056 13.4309 10.5941 16.8865 10.5941C20.3422 10.5941 23.1537 13.4056 23.1537 16.8612C23.1537 20.3169 20.3422 23.1284 16.8865 23.1284V23.1289Z" fill="white"/>
<path d="M20.5809 18.5669C20.2195 18.3763 19.1151 17.8557 19.1151 17.8557C18.801 17.7094 18.7111 17.7851 18.6109 17.9194L18.022 18.6557C17.9452 18.7587 17.8063 18.794 17.6897 18.7405C17.3073 18.5652 16.6325 18.3188 15.9878 17.6759C15.5667 17.2559 15.2224 16.7933 15.0529 16.486C14.9311 16.2658 14.9937 16.2141 15.1593 16.0513C15.2264 15.9853 15.4085 15.7674 15.4734 15.6627C15.5866 15.4806 15.6993 15.3691 15.5803 15.0999L14.9567 13.6057C14.8992 13.4685 14.7945 13.3792 14.646 13.3792C14.5061 13.3792 14.3245 13.3735 14.1806 13.3747C14.0827 13.3752 13.9484 13.4259 13.8653 13.4805C13.7271 13.5715 13.0807 14.136 13.0528 15.0589C13.0408 15.4607 13.1336 15.9 13.3179 16.3074C13.7089 17.1728 14.6483 18.2016 15.1946 18.7399C16.2973 19.8267 17.7608 20.3286 18.484 20.4618C19.1145 20.5778 19.8605 20.4111 20.3999 19.8347C20.4426 19.7886 20.4836 19.73 20.5149 19.6788C20.6053 19.5303 20.7072 19.058 20.7174 18.823C20.722 18.7126 20.6793 18.6176 20.5814 18.5664L20.5809 18.5669Z" fill="white"/>
</svg>
