<svg width="33" height="33" viewBox="0 0 33 33" fill="none" xmlns="http://www.w3.org/2000/svg">
<circle cx="16.8702" cy="16.8312" r="15.5411" stroke="white"/>
<path d="M7.3457 16.8504C7.3457 18.1103 7.41508 19.3689 7.55507 20.6275C7.67691 22.0689 8.63025 22.9983 10.0347 23.1596C11.2972 23.3262 13.9058 23.4014 16.7419 23.3839C19.5779 23.4014 22.1865 23.3262 23.449 23.1596C24.8534 22.9983 25.8068 22.0689 25.9287 20.6275C26.068 19.3689 26.138 18.1097 26.138 16.8504C26.138 15.5905 26.0686 14.3319 25.9287 13.0733C25.8068 11.6319 24.8534 10.7025 23.449 10.5412C22.1865 10.3746 19.5779 10.2994 16.7419 10.3169C13.9058 10.2994 11.2972 10.3746 10.0347 10.5412C8.63025 10.7025 7.67691 11.6319 7.55507 13.0733C7.41573 14.3319 7.3457 15.5912 7.3457 16.8504Z" fill="white"/>
<path d="M14.8691 14.0308L19.7914 16.85L14.8691 19.6699V14.0308Z" fill="#353535"/>
</svg>
